<svg width="26" height="25" viewBox="0 0 26 25" fill="none" xmlns="http://www.w3.org/2000/svg">
<path d="M13.324 4.67473L13.6469 3.18221H12.5604L12.2539 4.53512C12.2429 4.59125 12.2375 4.63874 12.2375 4.67617C12.2375 4.77116 12.2785 4.82297 12.362 4.83448L12.3456 4.92516H11.4356C11.3289 4.92516 11.2755 4.87191 11.2755 4.76684L11.296 4.62579L12.0007 1.41192C12.0117 1.35435 12.0172 1.30829 12.0172 1.26943C12.0172 1.17588 11.9761 1.12262 11.894 1.11111L11.9091 1.02188H12.819C12.9258 1.02188 12.9805 1.07369 12.9805 1.1802L12.9586 1.32124L12.7109 2.43523H13.8084L14.0287 1.45653C14.0396 1.4004 14.0451 1.35291 14.0451 1.31549C14.0451 1.2205 14.0041 1.16868 13.9219 1.15717L13.937 1.06649H14.847C14.9537 1.06649 15.0084 1.11975 15.0084 1.22481L14.9866 1.36586L14.2818 4.58405C14.2709 4.64162 14.2654 4.68912 14.2654 4.72654C14.2654 4.82153 14.3065 4.87335 14.3899 4.88486L14.3735 4.97553H13.4635C13.3568 4.97553 13.3021 4.92228 13.3021 4.81721L13.324 4.67473ZM18.9891 1.01036C19.4543 1.01036 19.7951 1.11111 20.0113 1.31549C20.2152 1.50835 20.3164 1.80196 20.3164 2.19775C20.3164 2.30714 20.3082 2.42948 20.2904 2.56621C20.2726 2.7015 20.2466 2.84974 20.2152 3.01238C20.0359 3.82412 19.8306 4.35521 19.6021 4.60852C19.3476 4.88342 18.9056 5.02159 18.2789 5.02159C17.8123 5.02159 17.4743 4.92948 17.2677 4.74381C17.0597 4.55959 16.9557 4.25446 16.9557 3.827C16.9557 3.52907 17.0036 3.16206 17.1007 2.72452C17.2293 2.14306 17.4113 1.72855 17.644 1.47956C17.9382 1.16724 18.3856 1.01036 18.9891 1.01036ZM19.2518 3.08578C19.2888 2.92458 19.3161 2.77058 19.338 2.62522C19.3599 2.47985 19.3709 2.35607 19.3709 2.25533C19.3709 2.08117 19.3353 1.95308 19.2628 1.8696C19.1916 1.78756 19.0725 1.74583 18.9083 1.74583C18.6634 1.74583 18.4814 1.81779 18.3596 1.96028C18.2187 2.12579 18.1024 2.43379 18.0066 2.88284C17.9122 3.33189 17.8643 3.64421 17.8643 3.82124C17.8643 3.99539 17.9039 4.11629 17.9833 4.18394C18.0613 4.25158 18.1982 4.28613 18.3911 4.28613C18.6251 4.28613 18.8002 4.20553 18.9179 4.04577C19.037 3.88457 19.1478 3.56505 19.2518 3.08578ZM16.1565 4.49194H15.642C15.5804 4.49194 15.549 4.46747 15.549 4.41854C15.549 4.41134 15.5503 4.39407 15.5544 4.36816L15.6051 4.1494H16.3385C16.4507 4.1494 16.5465 4.18538 16.6272 4.25446C16.7189 4.33362 16.7641 4.43725 16.7641 4.5639C16.7641 4.59557 16.76 4.63299 16.7504 4.67761C16.7189 4.82441 16.6697 4.93811 16.6026 5.02015C16.5561 5.07916 16.4795 5.13817 16.3714 5.2015L16.0087 5.41451C15.8869 5.48359 15.8076 5.53972 15.7734 5.58002C15.7378 5.6232 15.7132 5.67501 15.6995 5.7369H16.3454C16.3919 5.7369 16.4275 5.72971 16.4521 5.71675C16.4767 5.70236 16.5027 5.67645 16.5301 5.63759H16.578L16.5109 5.95135C16.4972 6.01324 16.4767 6.05498 16.448 6.07513C16.4206 6.09528 16.3659 6.10392 16.2852 6.10392H15.1234C15.1918 5.79879 15.2684 5.57283 15.3519 5.42602C15.4368 5.27922 15.5613 5.1612 15.7282 5.07052L16.0813 4.88054C16.1346 4.85176 16.1798 4.82009 16.214 4.78267C16.2496 4.74669 16.2728 4.69919 16.2852 4.64306C16.2893 4.62291 16.2906 4.60996 16.2906 4.60276C16.2906 4.52936 16.2455 4.49194 16.1565 4.49194Z" fill="white"/>
<path fill-rule="evenodd" clip-rule="evenodd" d="M21.0827 23.1031V25H25.2303V16.8437H24.6227C24.6227 16.8437 24.6227 15.7542 24.6227 15.3972C24.6227 15.0432 23.5622 14.0227 23.5622 14.0227C23.5622 14.0227 25.727 14.2703 25.8625 14.0227C25.9979 13.7766 26.0883 12.5763 25.8625 12.3402C25.6367 12.1028 23.6648 12.4381 23.5622 12.8382C23.461 13.2369 23.3515 13.6672 23.3515 13.6672C23.3515 13.6672 20.2275 9.3768 19.6637 9.35377C19.0999 9.3293 13.443 9.35377 13.443 9.35377C13.443 9.35377 7.78474 9.3293 7.22097 9.35377C6.65719 9.3768 3.53317 13.6672 3.53317 13.6672C3.53317 13.6672 3.4237 13.2369 3.32244 12.8382C3.22118 12.4381 1.24797 12.1028 1.02355 12.3402C0.797768 12.5763 0.888082 13.7766 1.02355 14.0227C1.15902 14.2703 3.32244 14.0227 3.32244 14.0227C3.32244 14.0227 2.26331 15.0432 2.26331 15.3972C2.26331 15.7542 2.26331 16.8437 2.26331 16.8437H1.65438V25H5.80195V23.1031H21.0827ZM3.91221 16.1572C3.88348 16.3299 3.55096 18.2427 3.91221 18.6226C4.2721 19.0012 9.02724 19.1566 9.16271 18.6226C9.29954 18.0887 5.12871 16.2047 3.91221 16.1572ZM22.9095 16.1572C22.9369 16.3299 23.2708 18.2427 22.9095 18.6226C22.5496 19.0012 17.7945 19.1566 17.6576 18.6226C17.5222 18.0887 21.693 16.2047 22.9095 16.1572ZM13.443 21.8941C13.443 21.8941 17.9956 21.9646 19.078 21.8941C20.1604 21.8221 20.1823 19.6661 20.1823 19.6661H6.70235C6.70235 19.6661 6.72561 21.8221 7.80664 21.8941C8.88903 21.9646 13.443 21.8941 13.443 21.8941ZM20.8816 13.3592C20.8816 13.3592 19.2354 10.4678 18.8522 10.4203C18.4691 10.3713 13.443 10.4203 13.443 10.4203C13.443 10.4203 8.41693 10.3713 8.03242 10.4203C7.64927 10.4678 6.00447 13.3592 6.00447 13.3592H20.8816Z" fill="white"/>
<path d="M4.23652 0C5.29428 4.44301 8.47167 6.66523 8.47167 8.88601C8.47167 11.1068 7.41254 13.329 4.23652 13.329C1.05913 13.329 0 11.1068 0 8.88601C0 6.66523 3.17602 4.44301 4.23652 0Z" fill="white"/>
</svg>
