<svg width="32" height="31" viewBox="0 0 32 31" fill="none" xmlns="http://www.w3.org/2000/svg">
<path d="M17.7634 5.16985L18.1727 5.44343L16.8691 7.58798L16.4615 7.31439L17.7634 5.16985ZM20.3689 0.882528L20.7765 1.15611L19.4746 3.30066L19.0653 3.02707L20.3689 0.882528Z" fill="white"/>
<path d="M18.368 5.65348L18.7487 5.96766L17.2548 7.96747L16.8724 7.65505L18.368 5.65348ZM20.7596 2.45166L21.1402 2.76584L19.6463 4.76742L19.264 4.45324L20.7596 2.45166ZM22.9743 0.312415L22.0379 1.56384L21.6556 1.25143L22.592 0L22.9743 0.312415Z" fill="white"/>
<path d="M18.7857 6.27831L19.1343 6.62955L17.4518 8.45992L17.1032 8.10691L18.7857 6.27831ZM21.4771 3.34831L21.8257 3.70132L20.1432 5.53169L19.7946 5.18044L21.4771 3.34831ZM24.1685 0.420084L24.5171 0.773095L22.8362 2.60346L22.4859 2.25045L24.1685 0.420084Z" fill="white"/>
<path d="M19.6346 7.17143L19.9007 7.5968L17.8729 8.9912L17.6068 8.56582L19.6346 7.17143ZM22.8767 4.94039L23.1428 5.36401L21.1167 6.76017L20.8506 6.33479L22.8767 4.94039ZM26.1204 2.7076L26.3866 3.13121L24.3588 4.52737L24.0927 4.10376L26.1204 2.7076Z" fill="white"/>
<path d="M19.8383 7.65858L20.0623 8.10867L17.9082 9.27714L17.6859 8.82528L19.8383 7.65858ZM24.1466 5.32165L24.3706 5.7735L22.2164 6.94197L21.9924 6.49011L24.1466 5.32165ZM28.1314 3.73486L26.5247 4.60503L26.3007 4.15494L27.9074 3.28301L28.1314 3.73486Z" fill="white"/>
<path d="M17.1183 4.85744L17.5596 5.06571L16.5659 7.38323L16.123 7.17496L17.1183 4.85744ZM19.5301 0.47127L18.5533 2.74819L18.112 2.53992L19.0889 0.262993L19.5301 0.47127Z" fill="white"/>
<path d="M19.3095 6.66662L19.6143 7.06199L17.728 8.6576L17.4232 8.26223L19.3095 6.66662ZM22.3293 4.11258L22.6325 4.50795L20.7461 6.10357L20.4413 5.70819L22.3293 4.11258ZM25.3474 1.55678L25.6522 1.95215L23.7642 3.54953L23.4611 3.15416L25.3474 1.55678Z" fill="white"/>
<path fill-rule="evenodd" clip-rule="evenodd" d="M0.808453 20.3246C1.33224 19.8745 5.16214 16.678 5.40466 16.4697C5.64551 16.2632 5.89645 16.5403 5.89645 16.5403C5.89645 16.5403 6.71161 15.7284 6.96593 15.5802C7.22024 15.4319 7.47624 15.4584 7.47624 15.4584C7.47624 15.4584 7.31119 15.3436 7.5234 15.1424C7.7373 14.9412 14.3647 9.07769 14.3647 9.07769L14.624 9.06357L14.6981 8.77057C14.6981 8.77057 15.9882 7.51738 16.3487 7.22438C16.7091 6.93138 17.2295 7.50855 17.4451 7.78213C17.659 8.05572 18.0514 8.51287 17.6725 8.91001C17.2935 9.30714 15.8215 10.4174 15.8215 10.4174L15.5925 10.3838L15.6598 10.6627C15.6598 10.6627 8.94487 16.6745 8.82529 16.7592C8.7074 16.8422 8.43793 16.6515 8.43793 16.6515C8.43793 16.6515 8.45308 17.0981 8.19708 17.354C7.94277 17.6082 7.35498 18.0654 7.35498 18.0654L7.06361 17.963C7.06361 17.963 7.29603 18.1607 7.19835 18.4131C7.10066 18.6637 6.60551 19.2144 6.67624 19.6486C6.74698 20.0828 8.18193 21.0712 8.5154 23.6447C8.85056 26.2199 8.93982 27.8385 8.1634 28.4368C7.38529 29.0369 4.05898 29.4147 3.8754 29.4835C3.69351 29.5523 4.14656 30.3643 3.95456 30.6343C3.76256 30.9061 2.81098 31.1974 2.71666 30.8197C2.62066 30.4402 2.6493 29.7447 2.46403 29.7465C2.27877 29.7465 1.89645 29.7747 1.80887 29.427C1.7213 29.0793 1.96719 28.7263 2.13393 28.6169C2.30235 28.5074 1.69266 27.0883 1.76845 25.6816C1.84424 24.2731 1.78866 23.5794 1.78866 23.5794L1.28508 23.0252C1.28508 23.0252 0.704032 23.357 0.146559 22.6368C-0.412599 21.9149 0.808453 20.3246 0.808453 20.3246ZM6.35287 20.7835C6.49603 20.6423 7.27919 21.3625 7.70193 23.1893C8.12466 25.0161 7.85519 27.3143 7.85519 27.3143C7.85519 27.3143 7.76761 27.0724 7.59751 27.113C7.4274 27.1554 7.3415 27.4766 7.08719 27.3231C6.83287 27.1713 5.22445 24.0701 5.08298 23.3976C4.94319 22.7233 5.56129 22.2432 5.90319 21.6484C6.24508 21.0536 6.35287 20.7835 6.35287 20.7835ZM5.26656 21.0306C5.26656 21.0306 5.24466 21.2619 4.8354 21.7914C4.42614 22.3227 4.12129 23.0075 4.47835 23.8494C4.83372 24.6896 5.17729 25.1891 5.17729 25.1891L5.06277 25.3233C5.06277 25.3233 6.30572 27.3796 6.55161 27.7149C6.79751 28.0503 7.61603 27.8049 7.61603 27.8049C7.61603 27.8049 7.4914 28.248 6.42698 28.3521C5.36256 28.4562 4.52382 28.6327 4.37561 28.6363C4.2274 28.6416 3.98319 28.0732 3.83498 26.7883C3.68508 25.5033 3.39877 23.7188 3.47456 23.0869C3.55203 22.455 3.56045 22.4656 4.0354 22.0403C4.50866 21.6131 5.26656 21.0306 5.26656 21.0306Z" fill="white"/>
<path fill-rule="evenodd" clip-rule="evenodd" d="M27.4813 29.2064V30.9432H31.2927V23.4735H30.7352C30.7352 23.4735 30.7352 22.4745 30.7352 22.1497C30.7352 21.8249 29.76 20.8894 29.76 20.8894C29.76 20.8894 31.7491 21.1171 31.8737 20.8894C31.9983 20.6635 32.0809 19.5657 31.8737 19.3486C31.6666 19.1314 29.8543 19.4386 29.76 19.8057C29.6674 20.1711 29.5663 20.5647 29.5663 20.5647C29.5663 20.5647 26.6948 16.6357 26.176 16.6145C25.659 16.5915 20.4581 16.6145 20.4581 16.6145C20.4581 16.6145 15.259 16.5915 14.7402 16.6145C14.2232 16.6357 11.3516 20.5647 11.3516 20.5647C11.3516 20.5647 11.2506 20.1711 11.1562 19.8057C11.0636 19.4386 9.2514 19.1314 9.04424 19.3486C8.83708 19.5657 8.91961 20.6635 9.04424 20.8894C9.16887 21.1171 11.1562 20.8894 11.1562 20.8894C11.1562 20.8894 10.1828 21.8249 10.1828 22.1497C10.1828 22.4745 10.1828 23.4735 10.1828 23.4735H9.62361V30.9432H13.4367V29.2064H27.4813ZM11.6986 22.8451C11.6733 23.0022 11.3668 24.7549 11.6986 25.1026C12.0303 25.4504 16.4009 25.5916 16.5255 25.1026C16.6501 24.6137 12.8169 22.8875 11.6986 22.8451ZM29.1604 22.8451C29.1857 23.0022 29.4922 24.7549 29.1604 25.1026C28.8287 25.4504 24.4581 25.5916 24.3335 25.1026C24.2089 24.6137 28.0421 22.8875 29.1604 22.8451ZM20.4581 28.0979C20.4581 28.0979 24.6434 28.1632 25.6388 28.0979C26.6324 28.0344 26.6527 26.0575 26.6527 26.0575H14.2636C14.2636 26.0575 14.2838 28.0344 15.2792 28.0979C16.2746 28.1632 20.4581 28.0979 20.4581 28.0979ZM27.296 20.2823C27.296 20.2823 25.7836 17.6347 25.4316 17.5906C25.0779 17.5482 20.4581 17.5906 20.4581 17.5906C20.4581 17.5906 15.8383 17.5482 15.4863 17.5906C15.1343 17.6347 13.6219 20.2823 13.6219 20.2823H27.296Z" fill="white"/>
</svg>
