<svg width="32" height="23" viewBox="0 0 32 23" fill="none" xmlns="http://www.w3.org/2000/svg">
<path fill-rule="evenodd" clip-rule="evenodd" d="M20.9891 3.4767C22.0484 3.19871 22.419 4.97639 21.3545 5.23792C20.307 5.49579 19.8624 3.77481 20.9891 3.4767ZM20.9621 3.30845C19.6653 3.59741 20.1032 5.74817 21.4017 5.40251C22.6312 5.07514 22.2438 3.02131 20.9621 3.30845Z" fill="white"/>
<path fill-rule="evenodd" clip-rule="evenodd" d="M23.3419 2.64273C23.7764 2.54214 24.1301 2.88414 24.2025 3.25724C24.4097 4.3125 22.9478 4.61244 22.7592 3.59375C22.6648 3.08898 22.9731 2.72869 23.3419 2.64273ZM23.2712 2.5074C22.0905 2.85305 22.6211 4.67096 23.7124 4.34908C24.8156 4.02537 24.381 2.18368 23.2712 2.5074Z" fill="white"/>
<path fill-rule="evenodd" clip-rule="evenodd" d="M13.737 4.71668C13.6612 4.27226 13.9391 3.93026 14.2658 3.86808C15.1382 3.69617 15.3622 5.11538 14.51 5.28364C14.1142 5.36228 13.7959 5.06234 13.737 4.71668ZM14.1799 3.75652C13.1441 4.07657 13.6208 5.71342 14.6144 5.3952C15.5862 5.08429 15.1837 3.44744 14.1799 3.75652Z" fill="white"/>
<path fill-rule="evenodd" clip-rule="evenodd" d="M5.15265 4.7935C5.53665 4.70022 5.84822 5.00016 5.92064 5.32387C6.01664 5.75183 5.74043 6.11578 5.44233 6.19259C4.57329 6.41754 4.25161 5.01113 5.15265 4.7935ZM5.07686 4.66913C4.70971 4.77704 4.3914 5.17207 4.51098 5.70245C4.60024 6.10297 4.99434 6.46144 5.48275 6.32061C5.83475 6.22002 6.15138 5.80121 6.04359 5.30375C5.95769 4.9014 5.55686 4.52648 5.07686 4.66913Z" fill="white"/>
<path fill-rule="evenodd" clip-rule="evenodd" d="M17.6072 1.14122C18.5622 1.01869 19.3436 1.81425 19.4396 2.7232C19.5508 3.78944 18.8333 4.62707 17.9828 4.7368C16.9992 4.86299 16.2195 4.06926 16.1268 3.14385C16.019 2.06481 16.7432 1.25095 17.6072 1.14122ZM17.5685 0.795563C16.5512 0.921756 15.6923 1.89838 15.8102 3.15482C15.918 4.27775 16.8426 5.2178 18.0131 5.07514C19.0203 4.95078 19.8725 3.96136 19.7563 2.71223C19.6518 1.60576 18.7272 0.651082 17.5685 0.795563Z" fill="white"/>
<path fill-rule="evenodd" clip-rule="evenodd" d="M18.0215 4.32348C17.9188 4.2174 17.4978 3.93941 17.3512 3.83699C17.1525 3.69983 16.8712 3.46207 16.6624 3.36331C16.7045 3.99428 17.3984 4.32896 18.0215 4.32348Z" fill="white"/>
<path fill-rule="evenodd" clip-rule="evenodd" d="M9.44396 2.12882C10.2962 1.98982 10.9429 2.64822 11.0557 3.42184C11.1922 4.34359 10.5656 5.06051 9.86164 5.17756C9.0145 5.31839 8.35766 4.65267 8.24651 3.88454C8.11177 2.96096 8.73155 2.24587 9.44396 2.12882ZM9.36144 1.84534C8.53956 2.00994 7.80188 2.86586 7.98546 3.9705C8.13535 4.86299 8.9286 5.65856 9.93912 5.46104C10.7644 5.3001 11.4987 4.44052 11.3151 3.33039C11.1686 2.44156 10.3736 1.64234 9.36144 1.84534Z" fill="white"/>
<path fill-rule="evenodd" clip-rule="evenodd" d="M9.30249 4.4515C9.19134 4.37468 9.09029 4.30701 8.98755 4.23203C8.87639 4.14973 8.77703 4.06377 8.65408 4.01074C8.69955 4.60695 9.34291 4.91055 9.94248 4.91786L9.30249 4.4515Z" fill="white"/>
<path fill-rule="evenodd" clip-rule="evenodd" d="M2.44785 6.10663C3.11815 5.96032 3.63857 6.44863 3.75814 7.02839C3.91309 7.76543 3.43815 8.35067 2.911 8.47869C2.23395 8.63963 1.68996 8.12206 1.57544 7.55145C1.42217 6.79612 1.8988 6.22734 2.44785 6.10663ZM2.41921 5.87985C1.65459 6.06091 1.22512 6.80709 1.36828 7.58254C1.49123 8.26288 2.12785 8.89019 2.93963 8.70364C3.57288 8.55733 4.13203 7.88613 3.96867 6.99913C3.84572 6.33159 3.20236 5.69514 2.41921 5.87985Z" fill="white"/>
<path fill-rule="evenodd" clip-rule="evenodd" d="M2.66511 8.19522C2.61626 8.12206 1.93754 7.64289 1.83143 7.599C1.86512 7.97575 2.26932 8.21168 2.66511 8.19522Z" fill="white"/>
<path fill-rule="evenodd" clip-rule="evenodd" d="M12.0006 1.45945C11.9096 -0.0896145 14.0266 -0.206664 14.1176 1.28936C14.158 1.95142 13.6915 2.48179 13.1307 2.5202C12.5243 2.56043 12.0359 2.06481 12.0006 1.45945ZM13.2182 0H12.878C12.6237 0.133508 12.4671 0.0457223 12.1016 0.477338C11.4465 1.24547 11.9029 2.73418 13.0565 2.73783C14.4022 2.74332 14.7643 0.813852 13.6713 0.171915C13.5029 0.0731554 13.353 0.0676686 13.2182 0Z" fill="white"/>
<path fill-rule="evenodd" clip-rule="evenodd" d="M13.1441 2.22026C13.1256 2.19649 13.1273 2.19649 13.1003 2.17271L12.9589 2.07029C12.8039 1.96239 12.4351 1.6844 12.3239 1.63685C12.3728 2.02823 12.7399 2.20563 13.1441 2.22026Z" fill="white"/>
<path fill-rule="evenodd" clip-rule="evenodd" d="M28.6892 6.28403C28.514 6.34804 28.0458 6.69553 27.8589 6.81807C27.3755 7.13995 27.421 7.07411 27.6888 7.60266C27.8875 7.99404 28.0172 8.16229 28.0172 8.70547C28.0155 9.16269 27.9212 9.43885 27.9599 9.95094C28.0189 10.7447 28.8576 12.4492 29.4976 12.5315C29.9119 12.5845 30.21 12.3504 30.5014 12.173C30.7894 11.9993 31.0605 11.8383 31.3468 11.6664C31.6887 11.4634 31.8504 11.3555 31.9447 10.9422C32.034 10.5563 32.0256 10.1137 31.842 9.77171C31.0605 8.31775 31.3064 8.51893 30.2167 7.29175C30.0079 7.05582 29.154 6.11578 28.6892 6.28403Z" fill="white"/>
<path fill-rule="evenodd" clip-rule="evenodd" d="M24.9638 5.22328L25.1355 5.58357C25.6661 5.40069 25.0682 5.29644 26.4307 5.63661C26.8669 5.74634 26.8433 5.80487 27.0909 5.64758C27.2593 5.54151 27.5052 5.37874 27.677 5.3001L28.0559 6.04445L28.4012 5.8451L28.0222 5.08795L28.4888 4.88677C28.4012 4.83556 26.7625 4.31982 26.6698 4.3125C26.552 4.30153 25.0547 5.14464 24.9638 5.22328Z" fill="white"/>
<path fill-rule="evenodd" clip-rule="evenodd" d="M26.7406 6.10846L27.0185 6.66993L27.8825 6.15601L27.5995 5.59455L26.7406 6.10846Z" fill="white"/>
<path fill-rule="evenodd" clip-rule="evenodd" d="M25.176 6.06823C25.2669 6.44863 25.4774 6.53276 25.5633 7.4472C25.7301 7.34661 25.8278 7.0229 25.8446 6.71748C25.8665 6.35902 25.784 6.08286 25.7031 5.75915L25.176 6.06823Z" fill="white"/>
<path fill-rule="evenodd" clip-rule="evenodd" d="M24.9132 5.74269L24.7297 5.36411C24.3524 5.52322 24.3726 6.00239 24.9132 5.74269Z" fill="white"/>
<path fill-rule="evenodd" clip-rule="evenodd" d="M6.06211 1.50517C6.62463 1.36435 7.07431 1.7923 7.17031 2.26415C7.29662 2.88597 6.90252 3.36331 6.47137 3.46756C5.26212 3.76201 4.87645 1.79962 6.06211 1.50517ZM6.03011 1.31862C4.56824 1.70452 5.11728 3.98879 6.50842 3.65228C7.02884 3.52608 7.49536 2.9445 7.3421 2.21843C7.22252 1.6588 6.69705 1.14305 6.03011 1.31862Z" fill="white"/>
<path fill-rule="evenodd" clip-rule="evenodd" d="M6.21537 3.30113L5.57538 2.58969C5.60065 3.01034 5.83475 3.26455 6.21537 3.30113Z" fill="white"/>
<path fill-rule="evenodd" clip-rule="evenodd" d="M21.4118 20.9242V23H25.8075V14.0751H25.1625C25.1625 14.0751 25.1625 12.8826 25.1625 12.4931C25.1625 12.1035 24.0391 10.9879 24.0391 10.9879C24.0391 10.9879 26.333 11.2586 26.4762 10.9879C26.6193 10.7172 26.7153 9.4041 26.4762 9.14623C26.237 8.88653 24.1469 9.25231 24.0391 9.69124C23.9314 10.1283 23.8151 10.5984 23.8151 10.5984C23.8151 10.5984 20.5023 5.90363 19.9061 5.87619C19.3083 5.85059 13.3109 5.87619 13.3109 5.87619C13.3109 5.87619 7.31347 5.85059 6.71558 5.87619C6.11938 5.90363 2.80658 10.5984 2.80658 10.5984C2.80658 10.5984 2.69037 10.1283 2.58258 9.69124C2.47479 9.25231 0.384715 8.88653 0.14556 9.14623C-0.093595 9.4041 0.00240378 10.7172 0.14556 10.9879C0.2904 11.2586 2.58258 10.9879 2.58258 10.9879C2.58258 10.9879 1.46091 12.1035 1.46091 12.4931C1.46091 12.8826 1.46091 14.0751 1.46091 14.0751H0.814183V23H5.2116V20.9242H21.4118ZM3.20741 13.3234C3.17878 13.5118 2.8251 15.6058 3.20741 16.021C3.58973 16.4361 8.6305 16.6062 8.77534 16.021C8.9185 15.4376 4.4975 13.3746 3.20741 13.3234ZM23.3469 13.3234C23.3756 13.5118 23.7293 15.6058 23.3469 16.021C22.9646 16.4361 17.9239 16.6062 17.779 16.021C17.6359 15.4376 22.0569 13.3746 23.3469 13.3234ZM13.3109 19.6019C13.3109 19.6019 18.1377 19.6806 19.2847 19.6019C20.4316 19.5233 20.4552 17.164 20.4552 17.164H6.16653C6.16653 17.164 6.19011 19.5233 7.33705 19.6019C8.48398 19.6806 13.3109 19.6019 13.3109 19.6019ZM21.1962 10.2618C21.1962 10.2618 19.4514 7.09606 19.0455 7.04485C18.6396 6.99181 13.3109 7.04485 13.3109 7.04485C13.3109 7.04485 7.98377 6.99181 7.5762 7.04485C7.17031 7.09606 5.42549 10.2618 5.42549 10.2618H21.1962Z" fill="white"/>
<path fill-rule="evenodd" clip-rule="evenodd" d="M23.7747 6.21637C23.6484 6.28403 23.5288 6.39742 23.4076 6.48704C23.3537 6.5291 23.2695 6.57483 23.2863 6.68456C23.2998 6.77966 23.3958 6.82172 23.4817 6.77417C23.5272 6.7504 23.6164 6.67358 23.6619 6.63701C23.8118 6.51813 23.9768 6.44315 23.96 6.30964C23.9499 6.20722 23.8674 6.16699 23.7747 6.21637Z" fill="white"/>
<path fill-rule="evenodd" clip-rule="evenodd" d="M24.2278 6.80526C24.1554 6.82355 23.8084 7.2954 23.8034 7.3649C23.7966 7.46549 23.8791 7.53865 23.9735 7.50573C24.0358 7.48378 24.2092 7.22591 24.2648 7.15092C24.3036 7.09971 24.381 7.01559 24.3861 6.94975C24.3945 6.85099 24.317 6.77966 24.2278 6.80526Z" fill="white"/>
<path fill-rule="evenodd" clip-rule="evenodd" d="M23.3284 5.55614C23.1802 5.61283 23.0387 5.66221 22.8905 5.7244C22.6766 5.81584 22.7861 6.05359 22.968 5.99507C23.1044 5.95301 23.2627 5.87619 23.3958 5.82316C23.6063 5.74086 23.5322 5.47567 23.3284 5.55614Z" fill="white"/>
<path fill-rule="evenodd" clip-rule="evenodd" d="M22.5891 6.94792C22.4577 7.0101 22.3314 7.11983 22.2034 7.20579C22.1461 7.24603 22.0569 7.28809 22.0703 7.40148C22.0804 7.49841 22.1781 7.54596 22.2657 7.5039C22.3128 7.48012 22.4088 7.40697 22.456 7.37222C22.6143 7.25883 22.7861 7.18933 22.776 7.05216C22.7693 6.94792 22.6867 6.90037 22.5891 6.94792Z" fill="white"/>
<path fill-rule="evenodd" clip-rule="evenodd" d="M23.1516 7.84041C23.0758 7.85687 22.7002 8.32141 22.6918 8.39273C22.6817 8.49515 22.7625 8.57379 22.8602 8.54636C22.9259 8.52624 23.1145 8.27203 23.1752 8.19704C23.2173 8.14766 23.2998 8.06536 23.3082 7.99769C23.32 7.89711 23.2442 7.82029 23.1516 7.84041Z" fill="white"/>
<path fill-rule="evenodd" clip-rule="evenodd" d="M22.0383 6.04445C21.8851 6.09566 21.7402 6.13772 21.5853 6.19442C21.3613 6.27672 21.464 6.52728 21.6526 6.47607C21.7924 6.43949 21.9575 6.36816 22.0973 6.32244C22.3162 6.24746 22.2522 5.97312 22.0383 6.04445Z" fill="white"/>
</svg>
