<svg width="32" height="28" viewBox="0 0 32 28" fill="none" xmlns="http://www.w3.org/2000/svg">
<path d="M3.34569 2.63514C3.34906 2.61919 3.35074 2.59688 3.35074 2.56659C3.35074 2.43268 3.25474 2.36732 3.06275 2.36732H2.70065L2.57434 2.90295H2.96507C3.08633 2.90295 3.17222 2.88542 3.22443 2.85194C3.27664 2.81687 3.31706 2.74513 3.34569 2.63514ZM2.4295 3.50236L2.26614 4.17031H2.60971C2.77476 4.17031 2.89433 4.14958 2.96843 4.10654C3.04254 4.0635 3.09643 3.9822 3.12843 3.85785C3.14022 3.81322 3.14696 3.77017 3.14696 3.73191C3.14696 3.65858 3.12169 3.60279 3.07454 3.56293C3.0257 3.52308 2.94822 3.50236 2.83875 3.50236H2.4295ZM3.41137 1.73922C3.6842 1.73922 3.88967 1.7998 4.02609 1.92096C4.16419 2.04371 4.23156 2.20312 4.23156 2.4008C4.23156 2.46137 4.2265 2.52514 4.21303 2.58891C4.17261 2.7531 4.11535 2.87745 4.03788 2.96513C3.96209 3.0528 3.85094 3.11817 3.70778 3.15961C3.8442 3.21381 3.94862 3.28874 4.02272 3.38917C4.09851 3.48801 4.13387 3.61235 4.13387 3.76061C4.13387 3.80206 4.13387 3.8451 4.13387 3.88814C4.12377 3.92959 4.11535 3.95828 4.11198 3.97263C4.0463 4.25958 3.93178 4.47001 3.76673 4.60232C3.58652 4.75217 3.32548 4.8255 2.98359 4.8255H1.34995C1.27754 4.8255 1.22869 4.81116 1.20512 4.78087C1.18154 4.75058 1.16975 4.70754 1.16975 4.65493C1.16975 4.62145 1.17985 4.56406 1.19838 4.48754L1.79626 2.0182C1.80299 1.97994 1.80805 1.95443 1.80805 1.93849C1.80805 1.86675 1.76426 1.83009 1.675 1.83009L1.69352 1.73922H3.41137ZM6.23739 2.07559L5.62436 4.54653C5.62436 4.58479 5.62436 4.61029 5.62436 4.62623C5.62436 4.69797 5.66815 4.73464 5.75741 4.73464L5.73888 4.8255H4.81596C4.74691 4.8255 4.69975 4.81275 4.67449 4.78884C4.64923 4.76333 4.63576 4.72667 4.63576 4.67725C4.63576 4.62783 4.64586 4.56406 4.66607 4.48754L5.28079 2.0182C5.28079 1.97994 5.28079 1.95443 5.28079 1.93849C5.28079 1.86675 5.237 1.83009 5.14774 1.83009L5.16627 1.73922H6.0875C6.16161 1.73922 6.20876 1.75357 6.23234 1.78386C6.2576 1.81415 6.26939 1.85719 6.26939 1.9098C6.26939 1.94487 6.25929 2.00066 6.23739 2.07559ZM6.43276 1.53836H5.55868C5.50141 1.53836 5.45594 1.53198 5.41889 1.51604C5.38352 1.5001 5.365 1.46184 5.365 1.39648C5.365 1.38532 5.365 1.37257 5.36837 1.35663C5.37005 1.34068 5.3751 1.31996 5.38352 1.29286L5.48626 0.883161H6.3536C6.4176 0.883161 6.46644 0.891132 6.49844 0.908668C6.53044 0.926203 6.54728 0.961275 6.54728 1.01388L6.54054 1.08243L6.43276 1.53836ZM7.81209 4.16393H8.29544C8.51101 4.16393 8.66259 4.15277 8.7468 4.12886C8.831 4.10654 8.895 4.05872 8.94047 3.98698H9.03647L8.92869 4.44291C8.88321 4.62305 8.80406 4.73942 8.68953 4.79203C8.57501 4.84463 8.38302 4.87173 8.11355 4.87173H7.258C6.96832 4.87173 6.77127 4.80956 6.66349 4.68681C6.55738 4.56247 6.50518 4.35682 6.50518 4.06669C6.50518 3.98379 6.52539 3.83872 6.57086 3.63308C6.58602 3.56134 6.62644 3.39395 6.69043 3.13092C6.82348 2.60166 7.00874 2.22544 7.24621 2.00226C7.43146 1.8269 7.65714 1.73922 7.92661 1.73922H9.35646L9.22847 2.20631C9.1931 2.33225 9.04489 2.39442 8.78385 2.39442H8.25334C8.12702 2.39442 8.02092 2.43906 7.92998 2.52992C7.83903 2.61919 7.78009 2.73557 7.75146 2.88064L7.55441 3.708C7.53251 3.79568 7.52241 3.86263 7.52241 3.91205C7.52241 3.99654 7.54599 4.05872 7.58978 4.10176C7.63356 4.14321 7.70767 4.16393 7.81209 4.16393ZM9.54846 4.48754L10.3754 1.16214C10.3754 1.12388 10.3754 1.09837 10.3754 1.08243C10.3754 1.01069 10.3299 0.974028 10.2423 0.974028L10.2609 0.883161H11.1821C11.2545 0.883161 11.3034 0.899103 11.3269 0.927797C11.3505 0.959681 11.364 1.00113 11.364 1.05374C11.364 1.08881 11.3539 1.14301 11.3337 1.21953L10.9716 2.68615L11.7429 1.96719C11.7749 1.94009 11.7918 1.91617 11.7918 1.89385C11.7918 1.85878 11.7598 1.83806 11.6941 1.83009L11.7126 1.73922H12.6119C12.6911 1.73922 12.7315 1.76951 12.7315 1.83009C12.7315 1.87154 12.7164 1.90501 12.6827 1.92733L11.7193 2.7547H11.8878C12.1134 2.7547 12.2819 2.80093 12.3964 2.8918C12.5109 2.98426 12.5682 3.09744 12.5682 3.23454C12.5682 3.26642 12.5682 3.29512 12.5682 3.32222C12.5614 3.36366 12.5547 3.39874 12.5496 3.43062L12.2616 4.54493C12.2616 4.58479 12.2616 4.61029 12.2616 4.62623C12.2616 4.69797 12.3054 4.73464 12.3947 4.73464L12.3762 4.8255H11.4532C11.3859 4.8255 11.3387 4.81275 11.3118 4.78884C11.2865 4.76333 11.273 4.72667 11.273 4.67725C11.273 4.62783 11.2831 4.56406 11.3034 4.48754L11.5139 3.63467L11.5324 3.49757C11.5324 3.37482 11.4162 3.31425 11.1838 3.31425H10.8133L10.5067 4.54493C10.5067 4.58319 10.5067 4.61029 10.5067 4.62623C10.5067 4.69797 10.5522 4.73464 10.6398 4.73464L10.6213 4.8255H9.70003C9.63098 4.8255 9.58383 4.81275 9.55856 4.78884C9.53162 4.76333 9.51814 4.72667 9.51814 4.67725C9.51814 4.62783 9.52825 4.56566 9.54846 4.48754Z" fill="white"/>
<path d="M17.7638 4.67087L18.1714 4.91637L16.8695 6.85327L16.4603 6.60617L17.7638 4.67087ZM20.3675 0.797077L20.7768 1.04417L19.4749 2.98107L19.0657 2.73397L20.3675 0.797077Z" fill="white"/>
<path d="M18.3667 5.10767L18.749 5.38983L17.2552 7.1976L16.8729 6.91385L18.3667 5.10767ZM20.7582 2.21428L21.1405 2.49804L19.6467 4.30581L19.2644 4.02205L20.7582 2.21428ZM22.9729 0.283759L22.0382 1.41401L21.6559 1.13025L22.5906 0L22.9729 0.283759Z" fill="white"/>
<path d="M18.7844 5.67041L19.133 5.98924L17.4505 7.64237L17.1019 7.32354L18.7844 5.67041ZM21.4774 3.0257L21.826 3.34453L20.1435 4.99767L19.7949 4.67884L21.4774 3.0257ZM24.1687 0.379409L24.5173 0.69824L22.8348 2.35297L22.4862 2.03414L24.1687 0.379409Z" fill="white"/>
<path d="M19.3099 6.02271L19.6147 6.37821L17.7267 7.82092L17.4236 7.46383L19.3099 6.02271ZM22.3279 3.71438L22.6327 4.07147L20.7465 5.51418L20.4416 5.15709L22.3279 3.71438ZM25.3476 1.40604L25.6507 1.76313L23.7645 3.20584L23.4596 2.84875L25.3476 1.40604Z" fill="white"/>
<path d="M19.6349 6.47705L19.901 6.86124L17.8733 8.12062L17.6072 7.73802L19.6349 6.47705ZM22.8769 4.46204L23.143 4.84463L21.117 6.10401L20.8509 5.72142L22.8769 4.46204ZM26.1206 2.44543L26.3867 2.82803L24.359 4.089L24.0929 3.70481L26.1206 2.44543Z" fill="white"/>
<path d="M19.8387 6.91703L20.0627 7.32514L17.9086 8.37887L17.6863 7.97236L19.8387 6.91703ZM24.1468 4.80797L24.3708 5.21607L22.2167 6.26981L21.9927 5.8633L24.1468 4.80797ZM28.1298 3.37323L26.5248 4.16074L26.3008 3.75264L27.9075 2.96672L28.1298 3.37323Z" fill="white"/>
<path d="M17.1171 4.38711L17.56 4.57522L16.5647 6.66835L16.1234 6.48024L17.1171 4.38711ZM19.5305 0.427233L18.5537 2.4821L18.1124 2.29399L19.0876 0.239123L19.5305 0.427233Z" fill="white"/>
<path fill-rule="evenodd" clip-rule="evenodd" d="M0.809338 18.3583C1.33143 17.9518 5.1629 15.0648 5.40373 14.8766C5.64457 14.6885 5.89719 14.9388 5.89719 14.9388C5.89719 14.9388 6.71064 14.2071 6.96495 14.0732C7.21926 13.9393 7.47694 13.9616 7.47694 13.9616C7.47694 13.9616 7.31189 13.8596 7.52409 13.6778C7.7363 13.4961 14.3635 8.19873 14.3635 8.19873L14.6228 8.18757L14.6969 7.92294C14.6969 7.92294 15.9887 6.7895 16.3491 6.52487C16.7095 6.26024 17.2282 6.78153 17.4438 7.02862C17.6594 7.27572 18.0518 7.6886 17.6729 8.04729C17.2922 8.40757 15.8203 9.41029 15.8203 9.41029L15.5929 9.38L15.6586 9.63188C15.6586 9.63188 8.94553 15.06 8.82595 15.1365C8.70638 15.213 8.43859 15.0408 8.43859 15.0408C8.43859 15.0408 8.45207 15.4442 8.19776 15.6753C7.94177 15.9049 7.35568 16.3162 7.35568 16.3162L7.06432 16.2237C7.06432 16.2237 7.29505 16.4022 7.19905 16.6302C7.10137 16.8582 6.60623 17.3556 6.67696 17.7477C6.7477 18.1383 8.18092 19.0326 8.51607 21.3569C8.84953 23.6827 8.94047 25.1446 8.16408 25.685C7.38599 26.227 4.05809 26.5682 3.8762 26.6303C3.69431 26.6909 4.14566 27.4258 3.95367 27.6697C3.76167 27.9152 2.81012 28.1783 2.71581 27.8371C2.6215 27.4944 2.64844 26.8663 2.46487 26.8679C2.27961 26.8679 1.89731 26.8934 1.80973 26.5793C1.72047 26.2653 1.96636 25.9464 2.13477 25.8476C2.30151 25.7488 1.69352 24.4671 1.76931 23.1965C1.84341 21.9244 1.78784 21.2979 1.78784 21.2979L1.28427 20.7957C1.28427 20.7957 0.703236 21.097 0.145778 20.4466C-0.411679 19.7946 0.809338 18.3583 0.809338 18.3583ZM6.3536 18.7728C6.49507 18.6452 7.27989 19.2956 7.70262 20.9456C8.12534 22.5955 7.85587 24.6711 7.85587 24.6711C7.85587 24.6711 7.76661 24.4527 7.59651 24.4894C7.42641 24.5261 7.34052 24.8162 7.08621 24.6791C6.83359 24.542 5.22521 21.7411 5.08374 21.1321C4.94227 20.5247 5.56036 20.0911 5.90225 19.5539C6.24413 19.0151 6.3536 18.7728 6.3536 18.7728ZM5.26732 18.9959C5.26732 18.9959 5.24374 19.2048 4.83449 19.683C4.42523 20.1613 4.1204 20.7814 4.47744 21.5418C4.83449 22.3006 5.17637 22.7518 5.17637 22.7518L5.06185 22.8729C5.06185 22.8729 6.30476 24.7301 6.55065 25.033C6.79654 25.3359 7.61672 25.1143 7.61672 25.1143C7.61672 25.1143 7.49209 25.5144 6.4277 25.6085C5.36331 25.7025 4.52292 25.862 4.37471 25.8651C4.2265 25.8699 3.98398 25.3566 3.83409 24.1961C3.68589 23.0355 3.3979 21.4238 3.47537 20.8531C3.55284 20.2824 3.56126 20.292 4.03619 19.9062C4.50944 19.522 5.26732 18.9959 5.26732 18.9959Z" fill="white"/>
<path fill-rule="evenodd" clip-rule="evenodd" d="M27.4814 26.3801V27.9487H31.2927V21.2022H30.7335C30.7335 21.2022 30.7335 20.3 30.7335 20.0066C30.7335 19.7117 29.7601 18.8684 29.7601 18.8684C29.7601 18.8684 31.7491 19.0741 31.8737 18.8684C31.9983 18.6644 32.0809 17.6728 31.8737 17.4767C31.6666 17.2806 29.8527 17.558 29.7601 17.888C29.6658 18.2196 29.5664 18.5751 29.5664 18.5751C29.5664 18.5751 26.6949 15.0249 26.1762 15.0058C25.6592 14.9866 20.4585 15.0058 20.4585 15.0058C20.4585 15.0058 15.2595 14.9866 14.7407 15.0058C14.222 15.0249 11.3505 18.5751 11.3505 18.5751C11.3505 18.5751 11.2511 18.2196 11.1568 17.888C11.0642 17.558 9.25204 17.2806 9.04321 17.4767C8.83606 17.6728 8.91858 18.6644 9.04321 18.8684C9.16784 19.0741 11.1568 18.8684 11.1568 18.8684C11.1568 18.8684 10.1834 19.7117 10.1834 20.0066C10.1834 20.3 10.1834 21.2022 10.1834 21.2022H9.62424V27.9487H13.4355V26.3801H27.4814ZM11.6974 20.6331C11.6739 20.7766 11.3674 22.3596 11.6974 22.6736C12.0292 22.9877 16.3996 23.1152 16.5243 22.6736C16.6506 22.2321 12.8174 20.673 11.6974 20.6331ZM29.1605 20.6331C29.1858 20.7766 29.4906 22.3596 29.1605 22.6736C28.8287 22.9877 24.4583 23.1152 24.332 22.6736C24.2074 22.2321 28.0406 20.673 29.1605 20.6331ZM20.4585 25.3789C20.4585 25.3789 24.6436 25.4379 25.6389 25.3789C26.6326 25.3215 26.6528 23.5361 26.6528 23.5361H14.2641C14.2641 23.5361 14.2843 25.3215 15.2797 25.3789C16.2733 25.4379 20.4585 25.3789 20.4585 25.3789ZM27.2945 18.32C27.2945 18.32 25.7821 15.9272 25.4301 15.8889C25.0781 15.8491 20.4585 15.8889 20.4585 15.8889C20.4585 15.8889 15.8388 15.8491 15.4868 15.8889C15.1348 15.9272 13.6224 18.32 13.6224 18.32H27.2945Z" fill="white"/>
</svg>
