<svg width="27" height="27" viewBox="0 0 27 27" fill="none" xmlns="http://www.w3.org/2000/svg">
<path fill-rule="evenodd" clip-rule="evenodd" d="M21.8936 24.9513V27H26.2007V18.1912H25.5697C25.5697 18.1912 25.5697 17.0145 25.5697 16.629C25.5697 16.2466 24.4685 15.1446 24.4685 15.1446C24.4685 15.1446 26.7165 15.4119 26.8572 15.1446C26.9979 14.8788 27.0917 13.5824 26.8572 13.3275C26.6227 13.071 24.575 13.4332 24.4685 13.8653C24.3633 14.2959 24.2496 14.7606 24.2496 14.7606C24.2496 14.7606 21.0054 10.1269 20.42 10.1021C19.8345 10.0756 13.9601 10.1021 13.9601 10.1021C13.9601 10.1021 8.08415 10.0756 7.4987 10.1021C6.91324 10.1269 3.66906 14.7606 3.66906 14.7606C3.66906 14.7606 3.55538 14.2959 3.45022 13.8653C3.34507 13.4332 1.29597 13.071 1.06292 13.3275C0.828452 13.5824 0.922239 14.8788 1.06292 15.1446C1.2036 15.4119 3.45022 15.1446 3.45022 15.1446C3.45022 15.1446 2.35036 16.2466 2.35036 16.629C2.35036 17.0145 2.35036 18.1912 2.35036 18.1912H1.71801V27H6.0251V24.9513H21.8936ZM4.06268 17.4497C4.03284 17.6363 3.68753 19.7021 4.06268 20.1124C4.43641 20.5212 9.37444 20.6891 9.51512 20.1124C9.65722 19.5358 5.32596 17.501 4.06268 17.4497ZM23.7906 17.4497C23.8191 17.6363 24.1658 19.7021 23.7906 20.1124C23.4169 20.5212 18.4789 20.6891 18.3368 20.1124C18.1961 19.5358 22.5274 17.501 23.7906 17.4497ZM13.9601 23.6456C13.9601 23.6456 18.6878 23.7218 19.8118 23.6456C20.9358 23.5679 20.9586 21.2394 20.9586 21.2394H6.96013C6.96013 21.2394 6.98429 23.5679 8.10689 23.6456C9.23091 23.7218 13.9601 23.6456 13.9601 23.6456ZM21.6847 14.428C21.6847 14.428 19.9752 11.3052 19.5773 11.2539C19.1794 11.201 13.9601 11.2539 13.9601 11.2539C13.9601 11.2539 8.74066 11.201 8.34136 11.2539C7.94347 11.3052 6.23541 14.428 6.23541 14.428H21.6847Z" fill="white"/>
<path d="M4.39946 0C5.49791 4.79845 8.7975 7.19845 8.7975 9.59689C8.7975 11.9953 7.69764 14.3953 4.39946 14.3953C1.09987 14.3953 0 11.9953 0 9.59689C0 7.19845 3.29818 4.79845 4.39946 0Z" fill="white"/>
</svg>
